#!OML:ASF X:\für Bonn\!DataBase\2005_08_10_Bjorn_Final\c3d\bjorn.ASF
:FULLY-SPECIFIED
:DEGREES
155
root 0.714282 19.2568 2.4043 -171.615 0.341587 -178.622
lowerback -4.78558 2.37031 4.9029
upperback 3.77384 2.977 -1.56043
thorax 6.98537 1.78269 -4.06018
lowerneck -16.8837 -4.74549 0.923733
upperneck 16.1977 -7.18596 1.53326
head 7.80511 -3.26892 -0.480468
rclavicle 1.19768e-014 1.8487e-014
rhumerus 71.0665 -1.90687 -78.0358
rradius 8.8867
rwrist 45.6825
rhand -9.94915 9.29281
rfingers 7.12502
rthumb 16.0326 -20.0638
lclavicle 1.19768e-014 1.8487e-014
lhumerus 77.0488 -11.1072 63.0615
lradius 10.9638
lwrist -42.4247
lhand -12.2117 -6.38603
lfingers 7.12502
lthumb 13.853 23.1326
rfemur -18.4572 -13.8757 18.2646
rtibia 31.081
rfoot -15.0395 17.5712
rtoes -4.63276
lfemur -17.7641 8.29139 -19.1591
ltibia 31.5846
lfoot -17.5258 -9.0857
ltoes -9.02137
156
root 0.716919 19.2557 2.38336 -171.444 0.431758 -178.595
lowerback -5.16969 2.44269 4.95874
upperback 3.71973 3.04677 -1.59461
thorax 7.16377 1.82022 -4.10648
lowerneck -17.1407 -4.77747 1.06967
upperneck 16.3142 -7.25809 1.4525
head 7.87993 -3.29648 -0.547436
rclavicle 1.34677e-014 1.86858e-014
rhumerus 71.373 -1.9355 -78.1164
rradius 8.70354
rwrist 45.8089
rhand -9.8832 9.15173
rfingers 7.12502
rthumb 16.0961 -20.1998
lclavicle 1.34677e-014 1.86858e-014
lhumerus 77.3784 -10.9994 62.9848
lradius 10.8318
lwrist -42.5147
lhand -12.389 -6.41486
lfingers 7.12502
lthumb 13.6822 23.1154
rfemur -18.6238 -15.2658 18.3708
rtibia 30.9291
rfoot -14.3782 19.0727
rtoes -4.02784
lfemur -17.9108 9.39982 -19.1489
ltibia 31.5447
lfoot -17.3389 -10.2881
ltoes -7.98979
157
root 0.720543 19.2519 2.36561 -171.296 0.528011 -178.58
lowerback -5.5151 2.4992 4.98536
upperback 3.69352 3.09962 -1.60697
thorax 7.34472 1.84888 -4.11567
lowerneck -17.3856 -4.809 1.13822
upperneck 16.3783 -7.31261 1.40718
head 7.93943 -3.31709 -0.587268
rclavicle -2.13694e-014 4.57205e-015
rhumerus 71.6853 -1.91683 -78.1745
rradius 8.55051
rwrist 45.8687
rhand -9.80716 8.97241
rfingers 7.12502
rthumb 16.1693 -20.3732
lclavicle -2.13694e-014 4.57205e-015
lhumerus 77.7259 -10.8572 62.8932
lradius 10.7171
lwrist -42.4836
lhand -12.5186 -6.34255
lfingers 7.12502
lthumb 13.5572 23.1961
rfemur -18.6991 -16.6186 18.4763
rtibia 30.8139
rfoot -13.9462 20.4415
rtoes -4.10418
lfemur -18.0152 10.6394 -19.1619
ltibia 31.5921
lfoot -17.3098 -11.5184
ltoes -7.33205
158
root 0.723732 19.2448 2.35144 -171.2 0.601908 -178.55
lowerback -5.74963 2.5511 5.06985
upperback 3.66554 3.14948 -1.64303
thorax 7.46459 1.87908 -4.18684
lowerneck -17.5334 -4.8411 1.23211
upperneck 16.3711 -7.3726 1.3746
head 7.95781 -3.34024 -0.623628
rclavicle 1.77415e-014 1.47101e-014
rhumerus 71.8925 -1.95899 -78.254
rradius 8.46544
rwrist 45.8301
rhand -9.71406 8.85889
rfingers 7.12502
rthumb 16.259 -20.4794
lclavicle 1.77415e-014 1.47101e-014
lhumerus 78.1236 -10.763 62.6329
lradius 10.5778
lwrist -42.2832
lhand -12.6664 -6.30968
lfingers 7.12502
lthumb 13.4148 23.2384
rfemur -18.7526 -17.9126 18.5948
rtibia 30.7363
rfoot -13.5218 21.7215
rtoes -4.45478
lfemur -18.1027 11.0569 -19.1271
ltibia 31.6899
lfoot -17.3379 -11.9859
ltoes -6.5902
159
root 0.726811 19.238 2.3403 -171.145 0.672657 -178.496
lowerback -5.91352 2.59992 5.19652
upperback 3.65449 3.19559 -1.67285
thorax 7.56389 1.91014 -4.27777
lowerneck -17.5633 -4.88313 1.2826
upperneck 16.2645 -7.43717 1.38846
head 7.9261 -3.36684 -0.633204
rclavicle 9.46712e-014 -1.80894e-014
rhumerus 72.1225 -2.00443 -78.3285
rradius 8.36561
rwrist 45.7591
rhand -9.57759 8.76294
rfingers 7.12502
rthumb 16.3904 -20.5645
lclavicle 9.46712e-014 -1.80894e-014
lhumerus 78.5852 -10.7137 61.997
lradius 10.4694
lwrist -41.6241
lhand -12.7836 -6.18638
lfingers 7.12502
lthumb 13.3018 23.3691
rfemur -18.7786 -18.9329 18.7189
rtibia 30.6783
rfoot -13.2248 22.7499
rtoes -4.83435
lfemur -18.17 11.4831 -19.0661
ltibia 31.8067
lfoot -17.3952 -12.4469
ltoes -5.99348
160
root 0.73 19.2326 2.33188 -171.124 0.736068 -178.446
lowerback -6.01859 2.64117 5.32415
upperback 3.66092 3.23634 -1.71294
thorax 7.64824 1.93992 -4.38263
lowerneck -17.5563 -4.90889 1.3868
upperneck 16.1191 -7.48574 1.37865
head 7.87199 -3.38627 -0.655235
rclavicle 2.90723e-014 -1.05356e-014
rhumerus 72.4105 -2.09083 -78.4124
rradius 8.2044
rwrist 45.7103
rhand -9.44652 8.7256
rfingers 7.12502
rthumb 16.5166 -20.5914
lclavicle 2.90723e-014 -1.05356e-014
lhumerus 79.0709 -10.6692 61.317
lradius 10.3622
lwrist -40.8435
lhand -12.879 -6.05841
lfingers 7.12502
lthumb 13.2098 23.5031
rfemur -18.7864 -19.6899 18.8201
rtibia 30.6502
rfoot -13.0011 23.5087
rtoes -5.18087
lfemur -18.2063 11.9024 -19.0008
ltibia 31.9212
lfoot -17.4317 -12.89
ltoes -5.41384
161
root 0.73368 19.2274 2.32709 -171.175 0.798367 -178.372
lowerback -6.00696 2.67303 5.47938
upperback 3.67958 3.2686 -1.74137
thorax 7.67824 1.96652 -4.49603
lowerneck -17.5009 -4.94477 1.47162
upperneck 15.9416 -7.54399 1.38493
head 7.80029 -3.41137 -0.667992
rclavicle -6.5102e-015 -1.59028e-015
rhumerus 72.6517 -2.15567 -78.4953
rradius 8.06548
rwrist 45.6607
rhand -9.2592 8.72963
rfingers 7.12502
rthumb 16.6969 -20.5723
lclavicle -6.5102e-015 -1.59028e-015
lhumerus 79.5509 -10.6413 60.5098
lradius 10.2625
lwrist -39.9523
lhand -12.9568 -5.91221
lfingers 7.12502
lthumb 13.1349 23.6541
rfemur -18.7197 -19.9767 18.9037
rtibia 30.6251
rfoot -12.9621 23.8595
rtoes -5.4965
lfemur -18.1741 12.3237 -18.9
ltibia 32.0289
lfoot -17.4277 -13.3071
ltoes -4.79695
162
root 0.737167 19.2205 2.32521 -171.299 0.831186 -178.266
lowerback -5.8928 2.69437 5.67726
upperback 3.71762 3.2898 -1.76171
thorax 7.67074 1.99024 -4.62998
lowerneck -17.4062 -4.97927 1.53206
upperneck 15.7234 -7.59623 1.41849
head 7.71055 -3.43379 -0.665281
rclavicle 1.21259e-014 -9.93923e-016
rhumerus 72.8332 -2.22119 -78.5836
rradius 7.9577
rwrist 45.7104
rhand -9.13344 8.76809
rfingers 7.12502
rthumb 16.818 -20.5236
lclavicle 1.21259e-014 -9.93923e-016
lhumerus 79.8995 -10.5961 60.0347
lradius 10.2868
lwrist -39.3505
lhand -12.9089 -5.82118
lfingers 7.12502
lthumb 13.181 23.7422
rfemur -18.5792 -20.0447 18.9898
rtibia 30.6101
rfoot -12.973 23.9556
rtoes -5.81784
lfemur -18.0695 12.7245 -18.7377
ltibia 32.1267
lfoot -17.3409 -13.7787
ltoes -3.91564
163
root 0.740576 19.2142 2.3267 -171.504 0.848405 -178.083
lowerback -5.68139 2.69993 5.94368
upperback 3.79062 3.28928 -1.74311
thorax 7.64383 2.00727 -4.76716
lowerneck -17.2992 -5.0141 1.58743
upperneck 15.4818 -7.64656 1.45698
head 7.61156 -3.45586 -0.659044
rclavicle 2.36554e-014 -3.77691e-015
rhumerus 73.0361 -2.27538 -78.6546
rradius 7.83366
rwrist 45.7213
rhand -9.06681 8.88906
rfingers 7.12502
rthumb 16.8821 -20.3971
lclavicle 2.36554e-014 -3.77691e-015
lhumerus 79.9804 -10.4745 60.2675
lradius 10.5382
lwrist -39.4253
lhand -12.6906 -5.77391
lfingers 7.12502
lthumb 13.3914 23.7757
rfemur -18.3466 -19.8974 19.1248
rtibia 30.5984
rfoot -13.0391 23.8535
rtoes -6.04512
lfemur -17.8727 13.1262 -18.4706
ltibia 32.2074
lfoot -17.2369 -14.2566
ltoes -3.02506
164
root 0.744854 19.2032 2.33273 -172.052 0.874408 -177.947
lowerback -5.07272 2.67837 6.17347
upperback 3.94202 3.29157 -1.74457
thorax 7.4695 2.02724 -4.9184
lowerneck -17.1512 -5.04902 1.6948
upperneck 15.2391 -7.70628 1.47492
head 7.50253 -3.48277 -0.667472
rclavicle -3.62782e-015 -1.86858e-014
rhumerus 73.1928 -2.35436 -78.7455
rradius 7.70507
rwrist 45.86
rhand -9.07975 9.06398
rfingers 7.12502
rthumb 16.8697 -20.2233
lclavicle -3.62782e-015 -1.86858e-014
lhumerus 79.9756 -10.4046 60.6581
lradius 10.8487
lwrist -39.6747
lhand -12.4567 -5.74718
lfingers 7.12502
lthumb 13.6169 23.7875
rfemur -17.7306 -19.6772 19.0811
rtibia 30.5984
rfoot -13.1952 23.6788
rtoes -6.53574
lfemur -17.2854 13.5289 -18.1579
ltibia 32.2668
lfoot -17.1549 -14.7529
ltoes -2.19527
